# xmcd
#
# Track frame offsets:
#	150
#	17757
#	34357
#	55310
#	69145
#	83042
#	101457
#	118704
#	131347
#	148917
#	165567
#	186505
#	200320
#	214210
#	232612
#	249887
#
# Disc length: 3500 seconds
#
# Revision: 1
# Processed by: cddbd v1.5.2PL0 Copyright (c) Steve Scherf et al.
# Submitted via: audiograbber 1.83.01
#
DISCID=d60daa10
DTITLE=Leann Rimes - SC2137
DYEAR=1900
DGENRE=
TTITLE0=One Way Ticket
TTITLE1=Light In Your Eyes
TTITLE2=How Do I Live
TTITLE3=Blue
TTITLE4=Hurt Me
TTITLE5=Unchained Melody
TTITLE6=You Light Up My Life
TTITLE7=I Want To Be A Cowboy's Sweetheart
TTITLE8=One Way Ticket (vocal)
TTITLE9=Light In Your Eyes (vocal)
TTITLE10=How Do I Live (vocal)
TTITLE11=Blue (vocal)
TTITLE12=Hurt Me (vocal)
TTITLE13=Unchained Melody (vocal)
TTITLE14=You Light Up My Life (vocal)
TTITLE15=I Want To Be A Cowboy's Sweetheart (vocal)
EXTD=
EXTT0=
EXTT1=
EXTT2=
EXTT3=
EXTT4=
EXTT5=
EXTT6=
EXTT7=
EXTT8=
EXTT9=
EXTT10=
EXTT11=
EXTT12=
EXTT13=
EXTT14=
EXTT15=
PLAYORDER=
